<svg width="392" height="340" viewBox="0 0 392 340" fill="none" xmlns="http://www.w3.org/2000/svg">
<path opacity="0.5" d="M277.445 0C282.552 9.55524e-05 287.568 1.34187 291.989 3.89031C296.411 6.43874 300.081 10.1039 302.631 14.517L384.115 155.517C386.66 159.922 388 164.916 388 170.001C388 175.085 386.66 180.079 384.115 184.484L302.631 325.484C300.081 329.897 296.41 333.562 291.989 336.11C287.568 338.658 282.551 340 277.445 340H114.555C109.448 340 104.432 338.658 100.011 336.11C95.5893 333.561 91.9188 329.896 89.3686 325.483L7.88534 184.483C5.3399 180.078 4 175.084 4 169.999C4 164.915 5.3399 159.921 7.88534 155.516L89.3686 14.516C91.9189 10.1031 95.5895 6.43813 100.011 3.88987C104.432 1.34162 109.448 -5.70474e-06 114.555 0L277.445 0Z" fill="#0010F1"/>
<path opacity="0.4" d="M269.204 14C274.303 14.0004 279.312 15.3382 283.728 17.8794C288.144 20.4206 291.813 24.0757 294.366 28.478L368.021 155.478C370.581 159.892 371.929 164.901 371.929 170C371.929 175.099 370.581 180.108 368.021 184.522L294.366 311.522C291.813 315.924 288.144 319.579 283.728 322.121C279.312 324.662 274.303 326 269.204 326H121.792C116.694 326 111.685 324.662 107.268 322.121C102.852 319.579 99.1831 315.924 96.63 311.522L22.9721 184.522C20.4123 180.108 19.0645 175.099 19.0645 170C19.0645 164.901 20.4123 159.892 22.9721 155.478L96.627 28.478C99.1804 24.0753 102.85 20.4199 107.267 17.8787C111.684 15.3375 116.693 13.9998 121.792 14L269.204 14Z" fill="#0010F1"/>
<path d="M260.344 28C265.466 28 270.496 29.3496 274.927 31.9122C279.357 34.4747 283.03 38.1593 285.575 42.593L350.134 155.093C352.651 159.479 353.975 164.446 353.975 169.5C353.975 174.554 352.651 179.521 350.134 183.907L285.575 296.407C283.03 300.841 279.357 304.525 274.927 307.088C270.496 309.65 265.466 311 260.344 311H131.656C126.535 311 121.505 309.65 117.074 307.088C112.644 304.525 108.97 300.841 106.426 296.407L41.8667 183.907C39.3496 179.521 38.0254 174.554 38.0254 169.5C38.0254 164.446 39.3496 159.479 41.8667 155.093L106.426 42.593C108.97 38.1593 112.644 34.4747 117.074 31.9122C121.505 29.3496 126.535 28 131.656 28L260.344 28Z" fill="#0010F1"/>
<g clip-path="url(#clip0_1379_671)">
<path d="M191.093 95.117C190.771 95.1463 189.745 95.2488 188.822 95.322C167.54 97.2408 147.606 108.724 134.98 126.374C127.95 136.187 123.453 147.319 121.754 159.11C121.153 163.226 121.08 164.441 121.08 170.022C121.08 175.602 121.153 176.818 121.754 180.934C125.826 209.071 145.848 232.711 173.004 241.47C177.867 243.037 182.993 244.106 188.822 244.751C191.093 245 200.906 245 203.177 244.751C213.239 243.638 221.764 241.148 230.171 236.856C231.46 236.197 231.709 236.021 231.533 235.875C231.416 235.787 225.923 228.419 219.332 219.514L207.351 203.329L192.338 181.11C184.077 168.894 177.281 158.905 177.222 158.905C177.163 158.89 177.105 168.762 177.076 180.817C177.032 201.923 177.017 202.772 176.753 203.27C176.373 203.988 176.08 204.281 175.464 204.603C174.996 204.838 174.586 204.882 172.374 204.882H169.84L169.166 204.457C168.727 204.179 168.405 203.812 168.185 203.388L167.877 202.729L167.907 173.361L167.951 143.979L168.405 143.408C168.639 143.101 169.137 142.705 169.488 142.515C170.089 142.222 170.323 142.192 172.857 142.192C175.845 142.192 176.343 142.31 177.12 143.159C177.339 143.394 185.468 155.638 195.194 170.388C204.92 185.137 218.219 205.277 224.752 215.164L236.616 233.136L237.216 232.74C242.533 229.284 248.158 224.362 252.61 219.236C262.087 208.353 268.195 195.083 270.245 180.934C270.846 176.818 270.919 175.602 270.919 170.022C270.919 164.441 270.846 163.226 270.245 159.11C266.173 130.973 246.151 107.333 218.995 98.5737C214.206 97.0211 209.109 95.9519 203.396 95.3074C201.99 95.1609 192.308 94.9998 191.093 95.117ZM221.764 140.435C222.467 140.786 223.038 141.46 223.243 142.163C223.36 142.544 223.389 150.688 223.36 169.04L223.316 195.376L218.673 188.257L214.015 181.139V161.995C214.015 149.618 214.074 142.661 214.162 142.324C214.396 141.504 214.909 140.86 215.612 140.479C216.212 140.171 216.432 140.142 218.732 140.142C220.899 140.142 221.28 140.171 221.764 140.435Z" fill="white"/>
<path d="M235.884 233.458C235.372 233.78 235.21 234 235.664 233.751C235.987 233.561 236.514 233.165 236.426 233.15C236.382 233.15 236.133 233.297 235.884 233.458ZM234.874 234.117C234.61 234.322 234.61 234.337 234.932 234.176C235.108 234.088 235.254 233.985 235.254 233.956C235.254 233.839 235.181 233.868 234.874 234.117ZM234.141 234.556C233.878 234.762 233.878 234.776 234.2 234.615C234.376 234.527 234.522 234.425 234.522 234.395C234.522 234.278 234.449 234.308 234.141 234.556ZM233.409 234.996C233.145 235.201 233.145 235.216 233.467 235.055C233.643 234.967 233.79 234.864 233.79 234.835C233.79 234.718 233.716 234.747 233.409 234.996ZM232.296 235.582C231.739 235.875 231.768 235.992 232.325 235.714C232.574 235.582 232.764 235.45 232.764 235.421C232.764 235.318 232.75 235.333 232.296 235.582Z" fill="white"/>
</g>
<defs>
<clipPath id="clip0_1379_671">
<rect width="150" height="150" fill="white" transform="translate(121 95)"/>
</clipPath>
</defs>
</svg>
